# xmcd
#
# Track frame offsets:
#	150
#	22352
#	41810
#	61345
#	82247
#	103270
#	122015
#	139657
#	158835
#	174675
#	194692
#
# Disc length: 2804 seconds
#
# Revision: 8
# Processed by: cddbd v1.5.2PL0 Copyright (c) Steve Scherf et al.
# Submitted via: EZCDAudioConverter 7.0.0.1
#
DISCID=a70af20b
DTITLE=CHITÃOZINHO and XORORÓ - COWBOY DO ASFALTO [CD 848 189-2) PHILIPS POLYGRA
DTITLE=M
DYEAR=1990
DGENRE=Country
TTITLE0=EVIDÊNCIAS (BY GILMAR SINISTRO)
TTITLE1=NATUREZA, ESPELHO DE DEUS (BY GILMAR SINISTRO)
TTITLE2=É ASSIM QUE TE AMO (THE AIR THAT I BREATBE)
TTITLE3=TÔ  DEIXANDO VOCÊ (BY GILMAR SINISTRO)
TTITLE4=BOM DIA (BY GILMAR SINISTRO)
TTITLE5=NUVEM DE LÁGRIMAS (BY GILMAR SINISTRO)
TTITLE6=COWBOY DO ASFALTO (BY GILMAR SINISTRO)
TTITLE7=MEUS DIREITOS (BY GILMAR SINISTRO)
TTITLE8=GENTE HUMILDE (BY GILMAR SINISTRO)
TTITLE9=SEM ESTÓRIA, SEM DESTINO (BY GILMAR SINISTRO)
TTITLE10=LONGE (BY GILMAR SINISTRO)
EXTD=
EXTT0=
EXTT1=
EXTT2=
EXTT3=
EXTT4=
EXTT5=
EXTT6=
EXTT7=
EXTT8=
EXTT9=
EXTT10=
PLAYORDER=
